<svg id="Icon_material-account-circle" data-name="Icon material-account-circle" xmlns="http://www.w3.org/2000/svg" width="70" height="70" viewBox="0 0 70 70">
  <path id="Icon_material-account-circle-2" data-name="Icon material-account-circle" d="M38,3A35,35,0,1,0,73,38,35.013,35.013,0,0,0,38,3Zm0,10.5A10.5,10.5,0,1,1,27.5,24,10.486,10.486,0,0,1,38,13.5Zm0,49.7A25.2,25.2,0,0,1,17,51.93c.105-6.965,14-10.78,21-10.78,6.965,0,20.895,3.815,21,10.78A25.2,25.2,0,0,1,38,63.2Z" transform="translate(-3 -3)" fill="#fff"/>
</svg>
